<svg xmlns="http://www.w3.org/2000/svg" width="1920" height="1080"><path d="M188,1335L28,1339L425,1332Z" fill="#7789d9" stroke="#7789d9" stroke-width="1.51"/><path d="M-182,-263L39,-230L582,-257Z" fill="#623db4" stroke="#623db4" stroke-width="1.51"/><path d="M898,-242L1038,-231L1130,-231Z" fill="#6553c3" stroke="#6553c3" stroke-width="1.51"/><path d="M425,1332L28,1339L1229,1340Z" fill="#758edf" stroke="#758edf" stroke-width="1.51"/><path d="M761,1317L425,1332L1229,1340Z" fill="#7593e3" stroke="#7593e3" stroke-width="1.51"/><path d="M582,-257L898,-242L1332,-236Z" fill="#644fc1" stroke="#644fc1" stroke-width="1.51"/><path d="M898,-242L1130,-231L1332,-236Z" fill="#6859c5" stroke="#6859c5" stroke-width="1.51"/><path d="M582,-257L1332,-236L1980,-227Z" fill="#6c62c7" stroke="#6c62c7" stroke-width="1.51"/><path d="M1611,-164L1826,-165L1980,-227Z" fill="#7577d0" stroke="#7577d0" stroke-width="1.51"/><path d="M1332,-236L1611,-164L1980,-227Z" fill="#7271ce" stroke="#7271ce" stroke-width="1.51"/><path d="M1980,1040L2046,1149L2053,939Z" fill="#7fb7f1" stroke="#7fb7f1" stroke-width="1.51"/><path d="M2106,210L1974,237L2107,389Z" fill="#748cdf" stroke="#748cdf" stroke-width="1.51"/><path d="M1974,237L1935,361L2107,389Z" fill="#738bdf" stroke="#738bdf" stroke-width="1.51"/><path d="M1905,583L1888,677L2118,706Z" fill="#769be7" stroke="#769be7" stroke-width="1.51"/><path d="M2107,389L1935,361L2121,530Z" fill="#7490e2" stroke="#7490e2" stroke-width="1.51"/><path d="M1905,583L2118,706L2121,530Z" fill="#769be7" stroke="#769be7" stroke-width="1.51"/><path d="M2037,-50L1945,63L2121,133Z" fill="#7586d9" stroke="#7586d9" stroke-width="1.51"/><path d="M2035,-198L2037,-50L2121,133Z" fill="#7785d7" stroke="#7785d7" stroke-width="1.51"/><path d="M2107,389L2121,530L2121,133Z" fill="#7590e1" stroke="#7590e1" stroke-width="1.51"/><path d="M2106,210L2107,389L2121,133Z" fill="#758ddf" stroke="#758ddf" stroke-width="1.51"/><path d="M2046,1149L2029,1329L2130,868Z" fill="#82bdf3" stroke="#82bdf3" stroke-width="1.51"/><path d="M2118,706L1973,784L2130,868Z" fill="#7aa9ec" stroke="#7aa9ec" stroke-width="1.51"/><path d="M1973,784L2053,939L2130,868Z" fill="#7caded" stroke="#7caded" stroke-width="1.51"/><path d="M2053,939L2046,1149L2130,868Z" fill="#7eb6f0" stroke="#7eb6f0" stroke-width="1.51"/><path d="M2121,530L2118,706L2130,868Z" fill="#7aa6ea" stroke="#7aa6ea" stroke-width="1.51"/><path d="M2121,133L2121,530L2130,868Z" fill="#7697e5" stroke="#7697e5" stroke-width="1.51"/><path d="M1888,677L1973,784L2118,706Z" fill="#78a1e9" stroke="#78a1e9" stroke-width="1.51"/><path d="M1935,361L1905,583L2121,530Z" fill="#7390e3" stroke="#7390e3" stroke-width="1.51"/><path d="M1974,237L2106,210L2121,133Z" fill="#748bdd" stroke="#748bdd" stroke-width="1.51"/><path d="M1945,63L1974,237L2121,133Z" fill="#7387dc" stroke="#7387dc" stroke-width="1.51"/><path d="M1926,1234L2029,1329L2046,1149Z" fill="#84c1f3" stroke="#84c1f3" stroke-width="1.51"/><path d="M2035,-198L1980,-227L2037,-50Z" fill="#7981d4" stroke="#7981d4" stroke-width="1.51"/><path d="M1980,-227L1897,-18L2037,-50Z" fill="#767fd5" stroke="#767fd5" stroke-width="1.51"/><path d="M1921,1195L1926,1234L2046,1149Z" fill="#82bcf3" stroke="#82bcf3" stroke-width="1.51"/><path d="M1818,1009L1980,1040L2053,939Z" fill="#7cb1ef" stroke="#7cb1ef" stroke-width="1.51"/><path d="M1973,784L1818,1009L2053,939Z" fill="#7aaced" stroke="#7aaced" stroke-width="1.51"/><path d="M1897,-18L1945,63L2037,-50Z" fill="#7481d7" stroke="#7481d7" stroke-width="1.51"/><path d="M1980,1040L1921,1195L2046,1149Z" fill="#80baf2" stroke="#80baf2" stroke-width="1.51"/><path d="M1826,-165L1897,-18L1980,-227Z" fill="#757cd3" stroke="#757cd3" stroke-width="1.51"/><path d="M1822,786L1818,1009L1973,784Z" fill="#78a5ec" stroke="#78a5ec" stroke-width="1.51"/><path d="M1926,1234L1788,1336L2029,1329Z" fill="#84c1f3" stroke="#84c1f3" stroke-width="1.51"/><path d="M1826,-165L1814,-81L1897,-18Z" fill="#737ad4" stroke="#737ad4" stroke-width="1.51"/><path d="M1794,398L1905,583L1935,361Z" fill="#708ae1" stroke="#708ae1" stroke-width="1.51"/><path d="M1945,63L1763,103L1974,237Z" fill="#7081db" stroke="#7081db" stroke-width="1.51"/><path d="M1763,103L1805,294L1974,237Z" fill="#6f81dc" stroke="#6f81dc" stroke-width="1.51"/><path d="M1805,294L1935,361L1974,237Z" fill="#7185de" stroke="#7185de" stroke-width="1.51"/><path d="M1818,1009L1921,1195L1980,1040Z" fill="#7eb4f0" stroke="#7eb4f0" stroke-width="1.51"/><path d="M1888,677L1822,786L1973,784Z" fill="#769fe9" stroke="#769fe9" stroke-width="1.51"/><path d="M1818,1009L1729,1167L1921,1195Z" fill="#7eb2f0" stroke="#7eb2f0" stroke-width="1.51"/><path d="M1897,-18L1763,103L1945,63Z" fill="#717fd8" stroke="#717fd8" stroke-width="1.51"/><path d="M1794,398L1730,540L1905,583Z" fill="#6f89e2" stroke="#6f89e2" stroke-width="1.51"/><path d="M1805,294L1794,398L1935,361Z" fill="#6f84df" stroke="#6f84df" stroke-width="1.51"/><path d="M1921,1195L1729,1167L1926,1234Z" fill="#80b8f2" stroke="#80b8f2" stroke-width="1.51"/><path d="M1729,1167L1788,1336L1926,1234Z" fill="#80baf2" stroke="#80baf2" stroke-width="1.51"/><path d="M1828,667L1888,677L1905,583Z" fill="#7395e6" stroke="#7395e6" stroke-width="1.51"/><path d="M1828,667L1822,786L1888,677Z" fill="#749ae8" stroke="#749ae8" stroke-width="1.51"/><path d="M1730,540L1828,667L1905,583Z" fill="#7190e4" stroke="#7190e4" stroke-width="1.51"/><path d="M1814,-81L1763,103L1897,-18Z" fill="#717bd6" stroke="#717bd6" stroke-width="1.51"/><path d="M1673,974L1818,1009L1822,786Z" fill="#78a5ec" stroke="#78a5ec" stroke-width="1.51"/><path d="M1681,1258L1429,1337L1788,1336Z" fill="#7fb7f1" stroke="#7fb7f1" stroke-width="1.51"/><path d="M1729,1167L1681,1258L1788,1336Z" fill="#7fb7f1" stroke="#7fb7f1" stroke-width="1.51"/><path d="M1763,103L1642,220L1805,294Z" fill="#6d7dda" stroke="#6d7dda" stroke-width="1.51"/><path d="M1665,-10L1763,103L1814,-81Z" fill="#6f79d5" stroke="#6f79d5" stroke-width="1.51"/><path d="M1673,974L1729,1167L1818,1009Z" fill="#7aabee" stroke="#7aabee" stroke-width="1.51"/><path d="M1645,812L1673,974L1822,786Z" fill="#759fea" stroke="#759fea" stroke-width="1.51"/><path d="M1611,-164L1814,-81L1826,-165Z" fill="#7276d1" stroke="#7276d1" stroke-width="1.51"/><path d="M1646,576L1581,647L1828,667Z" fill="#6f8de4" stroke="#6f8de4" stroke-width="1.51"/><path d="M1581,647L1645,812L1828,667Z" fill="#7194e6" stroke="#7194e6" stroke-width="1.51"/><path d="M1730,540L1646,576L1828,667Z" fill="#6f8de3" stroke="#6f8de3" stroke-width="1.51"/><path d="M1645,812L1822,786L1828,667Z" fill="#739ae8" stroke="#739ae8" stroke-width="1.51"/><path d="M1673,974L1668,1151L1729,1167Z" fill="#7bacee" stroke="#7bacee" stroke-width="1.51"/><path d="M1332,-236L1504,-155L1611,-164Z" fill="#6e6bcc" stroke="#6e6bcc" stroke-width="1.51"/><path d="M1663,418L1730,540L1794,398Z" fill="#6d84e0" stroke="#6d84e0" stroke-width="1.51"/><path d="M1611,-164L1665,-10L1814,-81Z" fill="#6f75d2" stroke="#6f75d2" stroke-width="1.51"/><path d="M1663,418L1794,398L1805,294Z" fill="#6d82de" stroke="#6d82de" stroke-width="1.51"/><path d="M1642,220L1663,418L1805,294Z" fill="#6c7edc" stroke="#6c7edc" stroke-width="1.51"/><path d="M1665,-10L1602,85L1763,103Z" fill="#6c78d6" stroke="#6c78d6" stroke-width="1.51"/><path d="M1602,85L1642,220L1763,103Z" fill="#6b79d8" stroke="#6b79d8" stroke-width="1.51"/><path d="M1668,1151L1681,1258L1729,1167Z" fill="#7db2f0" stroke="#7db2f0" stroke-width="1.51"/><path d="M1663,418L1646,576L1730,540Z" fill="#6c85e1" stroke="#6c85e1" stroke-width="1.51"/><path d="M1581,647L1538,737L1645,812Z" fill="#6f92e5" stroke="#6f92e5" stroke-width="1.51"/><path d="M1642,220L1528,201L1663,418Z" fill="#6a7ada" stroke="#6a7ada" stroke-width="1.51"/><path d="M1528,201L1461,433L1663,418Z" fill="#6879db" stroke="#6879db" stroke-width="1.51"/><path d="M1461,433L1646,576L1663,418Z" fill="#6a80df" stroke="#6a80df" stroke-width="1.51"/><path d="M1611,-164L1523,-100L1665,-10Z" fill="#6e72d0" stroke="#6e72d0" stroke-width="1.51"/><path d="M1645,812L1495,860L1673,974Z" fill="#749de9" stroke="#749de9" stroke-width="1.51"/><path d="M1481,996L1668,1151L1673,974Z" fill="#78a6ec" stroke="#78a6ec" stroke-width="1.51"/><path d="M1668,1151L1466,1183L1681,1258Z" fill="#7cafef" stroke="#7cafef" stroke-width="1.51"/><path d="M1466,1183L1429,1337L1681,1258Z" fill="#7cb0ee" stroke="#7cb0ee" stroke-width="1.51"/><path d="M1481,996L1466,1183L1668,1151Z" fill="#78a7ec" stroke="#78a7ec" stroke-width="1.51"/><path d="M1495,860L1481,996L1673,974Z" fill="#749fea" stroke="#749fea" stroke-width="1.51"/><path d="M1602,85L1528,201L1642,220Z" fill="#6977d8" stroke="#6977d8" stroke-width="1.51"/><path d="M1487,50L1602,85L1665,-10Z" fill="#6b74d5" stroke="#6b74d5" stroke-width="1.51"/><path d="M1523,-100L1487,50L1665,-10Z" fill="#6b71d2" stroke="#6b71d2" stroke-width="1.51"/><path d="M1437,565L1581,647L1646,576Z" fill="#6b86e1" stroke="#6b86e1" stroke-width="1.51"/><path d="M1461,433L1437,565L1646,576Z" fill="#697fde" stroke="#697fde" stroke-width="1.51"/><path d="M1538,737L1495,860L1645,812Z" fill="#7196e7" stroke="#7196e7" stroke-width="1.51"/><path d="M1504,-155L1523,-100L1611,-164Z" fill="#6e6fcf" stroke="#6e6fcf" stroke-width="1.51"/><path d="M1487,50L1528,201L1602,85Z" fill="#6974d6" stroke="#6974d6" stroke-width="1.51"/><path d="M1437,565L1538,737L1581,647Z" fill="#6c89e2" stroke="#6c89e2" stroke-width="1.51"/><path d="M1387,1292L1429,1337L1466,1183Z" fill="#7baced" stroke="#7baced" stroke-width="1.51"/><path d="M1335,399L1461,433L1528,201Z" fill="#6675d9" stroke="#6675d9" stroke-width="1.51"/><path d="M1279,187L1335,399L1528,201Z" fill="#6570d6" stroke="#6570d6" stroke-width="1.51"/><path d="M1437,565L1296,724L1538,737Z" fill="#6b87e1" stroke="#6b87e1" stroke-width="1.51"/><path d="M1296,724L1387,854L1538,737Z" fill="#6d8de3" stroke="#6d8de3" stroke-width="1.51"/><path d="M1387,854L1495,860L1538,737Z" fill="#7093e5" stroke="#7093e5" stroke-width="1.51"/><path d="M1337,1134L1466,1183L1481,996Z" fill="#76a2eb" stroke="#76a2eb" stroke-width="1.51"/><path d="M1315,-78L1487,50L1523,-100Z" fill="#696ccf" stroke="#696ccf" stroke-width="1.51"/><path d="M1487,50L1279,187L1528,201Z" fill="#6670d5" stroke="#6670d5" stroke-width="1.51"/><path d="M1504,-155L1315,-78L1523,-100Z" fill="#6b6bcd" stroke="#6b6bcd" stroke-width="1.51"/><path d="M854,1287L761,1317L1229,1340Z" fill="#7696e5" stroke="#7696e5" stroke-width="1.51"/><path d="M1287,64L1279,187L1487,50Z" fill="#656bd2" stroke="#656bd2" stroke-width="1.51"/><path d="M1387,854L1481,996L1495,860Z" fill="#7298e7" stroke="#7298e7" stroke-width="1.51"/><path d="M1332,-236L1315,-78L1504,-155Z" fill="#6b67cb" stroke="#6b67cb" stroke-width="1.51"/><path d="M1299,1010L1337,1134L1481,996Z" fill="#749ce9" stroke="#749ce9" stroke-width="1.51"/><path d="M1387,854L1299,1010L1481,996Z" fill="#7298e7" stroke="#7298e7" stroke-width="1.51"/><path d="M1315,-78L1287,64L1487,50Z" fill="#6769cf" stroke="#6769cf" stroke-width="1.51"/><path d="M1335,399L1282,519L1437,565Z" fill="#6577db" stroke="#6577db" stroke-width="1.51"/><path d="M1335,399L1437,565L1461,433Z" fill="#6779db" stroke="#6779db" stroke-width="1.51"/><path d="M1337,1134L1387,1292L1466,1183Z" fill="#79a6ec" stroke="#79a6ec" stroke-width="1.51"/><path d="M1387,1292L1229,1340L1429,1337Z" fill="#7bacec" stroke="#7bacec" stroke-width="1.51"/><path d="M1282,519L1296,724L1437,565Z" fill="#677dde" stroke="#677dde" stroke-width="1.51"/><path d="M1279,187L1201,279L1335,399Z" fill="#636cd5" stroke="#636cd5" stroke-width="1.51"/><path d="M1296,724L1214,731L1387,854Z" fill="#6b88e1" stroke="#6b88e1" stroke-width="1.51"/><path d="M1214,731L1129,857L1387,854Z" fill="#6b88e1" stroke="#6b88e1" stroke-width="1.51"/><path d="M1129,857L1299,1010L1387,854Z" fill="#6e90e4" stroke="#6e90e4" stroke-width="1.51"/><path d="M1337,1134L1207,1180L1387,1292Z" fill="#77a3ea" stroke="#77a3ea" stroke-width="1.51"/><path d="M1207,1180L1229,1340L1387,1292Z" fill="#79a5ea" stroke="#79a5ea" stroke-width="1.51"/><path d="M1232,510L1214,731L1282,519Z" fill="#6577dc" stroke="#6577dc" stroke-width="1.51"/><path d="M1282,519L1214,731L1296,724Z" fill="#687ede" stroke="#687ede" stroke-width="1.51"/><path d="M1163,-24L1287,64L1315,-78Z" fill="#6564cd" stroke="#6564cd" stroke-width="1.51"/><path d="M1130,-231L1315,-78L1332,-236Z" fill="#6961c8" stroke="#6961c8" stroke-width="1.51"/><path d="M1232,510L1282,519L1335,399Z" fill="#6473da" stroke="#6473da" stroke-width="1.51"/><path d="M1177,396L1232,510L1335,399Z" fill="#6370d8" stroke="#6370d8" stroke-width="1.51"/><path d="M1201,279L1177,396L1335,399Z" fill="#626cd6" stroke="#626cd6" stroke-width="1.51"/><path d="M1299,1010L1207,1180L1337,1134Z" fill="#749ce8" stroke="#749ce8" stroke-width="1.51"/><path d="M1148,1026L1207,1180L1299,1010Z" fill="#7296e6" stroke="#7296e6" stroke-width="1.51"/><path d="M1129,857L1148,1026L1299,1010Z" fill="#6e8fe4" stroke="#6e8fe4" stroke-width="1.51"/><path d="M1130,-231L1163,-24L1315,-78Z" fill="#665fc9" stroke="#665fc9" stroke-width="1.51"/><path d="M1147,126L1279,187L1287,64Z" fill="#6267d1" stroke="#6267d1" stroke-width="1.51"/><path d="M1047,670L1214,731L1232,510Z" fill="#6577dc" stroke="#6577dc" stroke-width="1.51"/><path d="M1163,-24L1147,126L1287,64Z" fill="#6362ce" stroke="#6362ce" stroke-width="1.51"/><path d="M1078,1241L854,1287L1229,1340Z" fill="#769ae6" stroke="#769ae6" stroke-width="1.51"/><path d="M1147,126L1201,279L1279,187Z" fill="#6166d2" stroke="#6166d2" stroke-width="1.51"/><path d="M1130,-231L1047,-74L1163,-24Z" fill="#645ac8" stroke="#645ac8" stroke-width="1.51"/><path d="M1207,1180L1078,1241L1229,1340Z" fill="#779ee8" stroke="#779ee8" stroke-width="1.51"/><path d="M1177,396L1011,588L1232,510Z" fill="#616dd8" stroke="#616dd8" stroke-width="1.51"/><path d="M1011,588L1047,670L1232,510Z" fill="#6270d9" stroke="#6270d9" stroke-width="1.51"/><path d="M1148,1026L1066,1173L1207,1180Z" fill="#7295e6" stroke="#7295e6" stroke-width="1.51"/><path d="M1086,98L1147,126L1163,-24Z" fill="#615fcd" stroke="#615fcd" stroke-width="1.51"/><path d="M1047,670L1129,857L1214,731Z" fill="#687ede" stroke="#687ede" stroke-width="1.51"/><path d="M1027,366L1011,588L1177,396Z" fill="#5f67d5" stroke="#5f67d5" stroke-width="1.51"/><path d="M1147,126L992,190L1201,279Z" fill="#5f61d0" stroke="#5f61d0" stroke-width="1.51"/><path d="M1027,366L1177,396L1201,279Z" fill="#5f66d4" stroke="#5f66d4" stroke-width="1.51"/><path d="M1066,1173L1078,1241L1207,1180Z" fill="#7498e7" stroke="#7498e7" stroke-width="1.51"/><path d="M992,190L1027,366L1201,279Z" fill="#5e61d1" stroke="#5e61d1" stroke-width="1.51"/><path d="M1047,670L999,839L1129,857Z" fill="#677dde" stroke="#677dde" stroke-width="1.51"/><path d="M1129,857L979,934L1148,1026Z" fill="#6c88e2" stroke="#6c88e2" stroke-width="1.51"/><path d="M1038,-231L1047,-74L1130,-231Z" fill="#6556c5" stroke="#6556c5" stroke-width="1.51"/><path d="M1086,98L992,190L1147,126Z" fill="#5e5ece" stroke="#5e5ece" stroke-width="1.51"/><path d="M1047,-74L1086,98L1163,-24Z" fill="#615bcb" stroke="#615bcb" stroke-width="1.51"/><path d="M979,934L1066,1173L1148,1026Z" fill="#6f8ce3" stroke="#6f8ce3" stroke-width="1.51"/><path d="M999,839L979,934L1129,857Z" fill="#6a81df" stroke="#6a81df" stroke-width="1.51"/><path d="M39,-230L409,-209L582,-257Z" fill="#6141b8" stroke="#6141b8" stroke-width="1.51"/><path d="M858,542L1011,588L1027,366Z" fill="#5d63d4" stroke="#5d63d4" stroke-width="1.51"/><path d="M876,-15L940,117L1047,-74Z" fill="#5e54c8" stroke="#5e54c8" stroke-width="1.51"/><path d="M921,711L999,839L1047,670Z" fill="#6475db" stroke="#6475db" stroke-width="1.51"/><path d="M979,934L872,1126L1066,1173Z" fill="#6e89e2" stroke="#6e89e2" stroke-width="1.51"/><path d="M1047,-74L940,117L1086,98Z" fill="#5f59ca" stroke="#5f59ca" stroke-width="1.51"/><path d="M940,117L992,190L1086,98Z" fill="#5c5acd" stroke="#5c5acd" stroke-width="1.51"/><path d="M1066,1173L854,1287L1078,1241Z" fill="#7494e5" stroke="#7494e5" stroke-width="1.51"/><path d="M858,382L858,542L1027,366Z" fill="#5c5ed1" stroke="#5c5ed1" stroke-width="1.51"/><path d="M1038,-231L898,-242L1047,-74Z" fill="#6352c3" stroke="#6352c3" stroke-width="1.51"/><path d="M872,1126L854,1287L1066,1173Z" fill="#728ee3" stroke="#728ee3" stroke-width="1.51"/><path d="M871,961L872,1126L979,934Z" fill="#6b83e0" stroke="#6b83e0" stroke-width="1.51"/><path d="M921,711L907,798L999,839Z" fill="#6577db" stroke="#6577db" stroke-width="1.51"/><path d="M992,190L854,240L1027,366Z" fill="#5b5ace" stroke="#5b5ace" stroke-width="1.51"/><path d="M898,-242L876,-15L1047,-74Z" fill="#6051c4" stroke="#6051c4" stroke-width="1.51"/><path d="M1011,588L921,711L1047,670Z" fill="#6270d9" stroke="#6270d9" stroke-width="1.51"/><path d="M854,240L858,382L1027,366Z" fill="#5b5acf" stroke="#5b5acf" stroke-width="1.51"/><path d="M858,542L921,711L1011,588Z" fill="#6069d7" stroke="#6069d7" stroke-width="1.51"/><path d="M907,798L979,934L999,839Z" fill="#677bdd" stroke="#677bdd" stroke-width="1.51"/><path d="M907,798L871,961L979,934Z" fill="#697dde" stroke="#697dde" stroke-width="1.51"/><path d="M940,117L854,240L992,190Z" fill="#5b57cc" stroke="#5b57cc" stroke-width="1.51"/><path d="M766,-183L876,-15L898,-242Z" fill="#604dc2" stroke="#604dc2" stroke-width="1.51"/><path d="M871,961L775,1031L872,1126Z" fill="#6c83df" stroke="#6c83df" stroke-width="1.51"/><path d="M582,-257L766,-183L898,-242Z" fill="#6149be" stroke="#6149be" stroke-width="1.51"/><path d="M680,138L854,240L940,117Z" fill="#5a54ca" stroke="#5a54ca" stroke-width="1.51"/><path d="M759,-9L680,138L940,117Z" fill="#5b52c7" stroke="#5b52c7" stroke-width="1.51"/><path d="M876,-15L759,-9L940,117Z" fill="#5c52c7" stroke="#5c52c7" stroke-width="1.51"/><path d="M712,802L871,961L907,798Z" fill="#6678db" stroke="#6678db" stroke-width="1.51"/><path d="M858,542L701,640L921,711Z" fill="#5f68d6" stroke="#5f68d6" stroke-width="1.51"/><path d="M712,802L907,798L921,711Z" fill="#6473d9" stroke="#6473d9" stroke-width="1.51"/><path d="M701,640L712,802L921,711Z" fill="#626dd7" stroke="#626dd7" stroke-width="1.51"/><path d="M791,388L858,542L858,382Z" fill="#5b5dd0" stroke="#5b5dd0" stroke-width="1.51"/><path d="M766,-183L759,-9L876,-15Z" fill="#5e4ec4" stroke="#5e4ec4" stroke-width="1.51"/><path d="M854,240L791,388L858,382Z" fill="#5a58ce" stroke="#5a58ce" stroke-width="1.51"/><path d="M702,587L701,640L858,542Z" fill="#5d62d3" stroke="#5d62d3" stroke-width="1.51"/><path d="M712,802L775,1031L871,961Z" fill="#697bdc" stroke="#697bdc" stroke-width="1.51"/><path d="M761,1317L854,1287L872,1126Z" fill="#728fe2" stroke="#728fe2" stroke-width="1.51"/><path d="M689,1103L761,1317L872,1126Z" fill="#7189e1" stroke="#7189e1" stroke-width="1.51"/><path d="M606,1266L425,1332L761,1317Z" fill="#748ddf" stroke="#748ddf" stroke-width="1.51"/><path d="M775,1031L689,1103L872,1126Z" fill="#6d84df" stroke="#6d84df" stroke-width="1.51"/><path d="M680,138L691,246L854,240Z" fill="#5a53ca" stroke="#5a53ca" stroke-width="1.51"/><path d="M691,246L791,388L854,240Z" fill="#5a56cc" stroke="#5a56cc" stroke-width="1.51"/><path d="M791,388L702,587L858,542Z" fill="#5c5ed1" stroke="#5c5ed1" stroke-width="1.51"/><path d="M39,-230L184,-192L409,-209Z" fill="#6140b6" stroke="#6140b6" stroke-width="1.51"/><path d="M689,1103L606,1266L761,1317Z" fill="#7289e0" stroke="#7289e0" stroke-width="1.51"/><path d="M576,-7L759,-9L766,-183Z" fill="#5d4bc2" stroke="#5d4bc2" stroke-width="1.51"/><path d="M712,802L593,978L775,1031Z" fill="#6879db" stroke="#6879db" stroke-width="1.51"/><path d="M573,440L702,587L791,388Z" fill="#5b5acf" stroke="#5b5acf" stroke-width="1.51"/><path d="M691,246L573,440L791,388Z" fill="#5a55cc" stroke="#5a55cc" stroke-width="1.51"/><path d="M184,-192L295,-188L409,-209Z" fill="#6042b8" stroke="#6042b8" stroke-width="1.51"/><path d="M582,-257L576,-7L766,-183Z" fill="#5f47bf" stroke="#5f47bf" stroke-width="1.51"/><path d="M593,978L689,1103L775,1031Z" fill="#6b7edd" stroke="#6b7edd" stroke-width="1.51"/><path d="M564,858L593,978L712,802Z" fill="#6774d8" stroke="#6774d8" stroke-width="1.51"/><path d="M576,-7L680,138L759,-9Z" fill="#5b4dc4" stroke="#5b4dc4" stroke-width="1.51"/><path d="M576,-7L539,61L680,138Z" fill="#5a4cc4" stroke="#5a4cc4" stroke-width="1.51"/><path d="M560,1129L606,1266L689,1103Z" fill="#6f84de" stroke="#6f84de" stroke-width="1.51"/><path d="M573,440L568,559L702,587Z" fill="#5b5bcf" stroke="#5b5bcf" stroke-width="1.51"/><path d="M701,640L542,722L712,802Z" fill="#626ad5" stroke="#626ad5" stroke-width="1.51"/><path d="M542,722L564,858L712,802Z" fill="#646ed6" stroke="#646ed6" stroke-width="1.51"/><path d="M680,138L539,184L691,246Z" fill="#5950c7" stroke="#5950c7" stroke-width="1.51"/><path d="M539,184L573,440L691,246Z" fill="#5951c9" stroke="#5951c9" stroke-width="1.51"/><path d="M568,559L701,640L702,587Z" fill="#5d60d2" stroke="#5d60d2" stroke-width="1.51"/><path d="M568,559L542,722L701,640Z" fill="#5f63d2" stroke="#5f63d2" stroke-width="1.51"/><path d="M593,978L560,1129L689,1103Z" fill="#6c7fdc" stroke="#6c7fdc" stroke-width="1.51"/><path d="M437,-116L576,-7L582,-257Z" fill="#5e46be" stroke="#5e46be" stroke-width="1.51"/><path d="M539,61L539,184L680,138Z" fill="#594ec6" stroke="#594ec6" stroke-width="1.51"/><path d="M539,184L442,398L573,440Z" fill="#5952c9" stroke="#5952c9" stroke-width="1.51"/><path d="M409,-209L437,-116L582,-257Z" fill="#6044bb" stroke="#6044bb" stroke-width="1.51"/><path d="M398,977L560,1129L593,978Z" fill="#6b7bda" stroke="#6b7bda" stroke-width="1.51"/><path d="M560,1129L421,1138L606,1266Z" fill="#7083dd" stroke="#7083dd" stroke-width="1.51"/><path d="M421,1138L425,1332L606,1266Z" fill="#7287dd" stroke="#7287dd" stroke-width="1.51"/><path d="M403,189L442,398L539,184Z" fill="#594fc7" stroke="#594fc7" stroke-width="1.51"/><path d="M398,977L421,1138L560,1129Z" fill="#6d7dda" stroke="#6d7dda" stroke-width="1.51"/><path d="M396,661L542,722L568,559Z" fill="#5f62d1" stroke="#5f62d1" stroke-width="1.51"/><path d="M564,858L398,977L593,978Z" fill="#6877d8" stroke="#6877d8" stroke-width="1.51"/><path d="M542,722L417,851L564,858Z" fill="#646ed5" stroke="#646ed5" stroke-width="1.51"/><path d="M417,851L398,977L564,858Z" fill="#6773d7" stroke="#6773d7" stroke-width="1.51"/><path d="M442,398L386,546L568,559Z" fill="#5b57cc" stroke="#5b57cc" stroke-width="1.51"/><path d="M442,398L568,559L573,440Z" fill="#5b57cc" stroke="#5b57cc" stroke-width="1.51"/><path d="M436,61L539,61L576,-7Z" fill="#5b4ac2" stroke="#5b4ac2" stroke-width="1.51"/><path d="M437,-116L436,61L576,-7Z" fill="#5b48c0" stroke="#5b48c0" stroke-width="1.51"/><path d="M386,546L396,661L568,559Z" fill="#5d5dce" stroke="#5d5dce" stroke-width="1.51"/><path d="M436,61L539,184L539,61Z" fill="#5a4cc4" stroke="#5a4cc4" stroke-width="1.51"/><path d="M436,61L403,189L539,184Z" fill="#594cc5" stroke="#594cc5" stroke-width="1.51"/><path d="M396,661L417,851L542,722Z" fill="#6369d3" stroke="#6369d3" stroke-width="1.51"/><path d="M266,376L246,499L386,546Z" fill="#5b54c9" stroke="#5b54c9" stroke-width="1.51"/><path d="M396,661L247,696L417,851Z" fill="#6267d1" stroke="#6267d1" stroke-width="1.51"/><path d="M247,696L304,878L417,851Z" fill="#656bd2" stroke="#656bd2" stroke-width="1.51"/><path d="M304,878L398,977L417,851Z" fill="#6772d6" stroke="#6772d6" stroke-width="1.51"/><path d="M398,977L293,1097L421,1138Z" fill="#6d7cd9" stroke="#6d7cd9" stroke-width="1.51"/><path d="M421,1138L260,1257L425,1332Z" fill="#7285db" stroke="#7285db" stroke-width="1.51"/><path d="M263,48L403,189L436,61Z" fill="#5a4ac2" stroke="#5a4ac2" stroke-width="1.51"/><path d="M329,-91L263,48L436,61Z" fill="#5b47bf" stroke="#5b47bf" stroke-width="1.51"/><path d="M329,-91L436,61L437,-116Z" fill="#5c46be" stroke="#5c46be" stroke-width="1.51"/><path d="M409,-209L329,-91L437,-116Z" fill="#5e44bc" stroke="#5e44bc" stroke-width="1.51"/><path d="M266,376L386,546L442,398Z" fill="#5a53c9" stroke="#5a53c9" stroke-width="1.51"/><path d="M403,189L292,251L442,398Z" fill="#594ec6" stroke="#594ec6" stroke-width="1.51"/><path d="M292,251L266,376L442,398Z" fill="#5a4fc6" stroke="#5a4fc6" stroke-width="1.51"/><path d="M295,-188L329,-91L409,-209Z" fill="#5e43ba" stroke="#5e43ba" stroke-width="1.51"/><path d="M293,1097L260,1257L421,1138Z" fill="#7080da" stroke="#7080da" stroke-width="1.51"/><path d="M260,1257L188,1335L425,1332Z" fill="#7588db" stroke="#7588db" stroke-width="1.51"/><path d="M263,48L292,251L403,189Z" fill="#5a4bc2" stroke="#5a4bc2" stroke-width="1.51"/><path d="M386,546L247,696L396,661Z" fill="#5f5ece" stroke="#5f5ece" stroke-width="1.51"/><path d="M236,980L293,1097L398,977Z" fill="#6c78d7" stroke="#6c78d7" stroke-width="1.51"/><path d="M246,499L247,696L386,546Z" fill="#5d59cb" stroke="#5d59cb" stroke-width="1.51"/><path d="M304,878L236,980L398,977Z" fill="#6974d6" stroke="#6974d6" stroke-width="1.51"/><path d="M263,48L169,253L292,251Z" fill="#5b49c1" stroke="#5b49c1" stroke-width="1.51"/><path d="M119,-43L263,48L329,-91Z" fill="#5d44bc" stroke="#5d44bc" stroke-width="1.51"/><path d="M295,-188L184,-192L329,-91Z" fill="#5f42b9" stroke="#5f42b9" stroke-width="1.51"/><path d="M184,-192L119,-43L329,-91Z" fill="#5f42b9" stroke="#5f42b9" stroke-width="1.51"/><path d="M105,721L108,878L247,696Z" fill="#6665ce" stroke="#6665ce" stroke-width="1.51"/><path d="M169,253L266,376L292,251Z" fill="#5b4cc3" stroke="#5b4cc3" stroke-width="1.51"/><path d="M97,1170L260,1257L293,1097Z" fill="#727fd7" stroke="#727fd7" stroke-width="1.51"/><path d="M247,696L108,878L304,878Z" fill="#676ad0" stroke="#676ad0" stroke-width="1.51"/><path d="M108,878L236,980L304,878Z" fill="#6970d3" stroke="#6970d3" stroke-width="1.51"/><path d="M246,499L119,498L247,696Z" fill="#5e56c9" stroke="#5e56c9" stroke-width="1.51"/><path d="M104,38L169,253L263,48Z" fill="#5b46bf" stroke="#5b46bf" stroke-width="1.51"/><path d="M175,432L246,499L266,376Z" fill="#5c50c7" stroke="#5c50c7" stroke-width="1.51"/><path d="M236,980L129,999L293,1097Z" fill="#6d77d5" stroke="#6d77d5" stroke-width="1.51"/><path d="M129,999L97,1170L293,1097Z" fill="#6f79d6" stroke="#6f79d6" stroke-width="1.51"/><path d="M40,655L105,721L119,498Z" fill="#625ac9" stroke="#625ac9" stroke-width="1.51"/><path d="M119,498L105,721L247,696Z" fill="#615cca" stroke="#615cca" stroke-width="1.51"/><path d="M119,-43L104,38L263,48Z" fill="#5d44bb" stroke="#5d44bb" stroke-width="1.51"/><path d="M169,253L175,432L266,376Z" fill="#5b4dc4" stroke="#5b4dc4" stroke-width="1.51"/><path d="M97,1170L188,1335L260,1257Z" fill="#7583d8" stroke="#7583d8" stroke-width="1.51"/><path d="M108,878L129,999L236,980Z" fill="#6b72d2" stroke="#6b72d2" stroke-width="1.51"/><path d="M175,432L119,498L246,499Z" fill="#5d51c7" stroke="#5d51c7" stroke-width="1.51"/><path d="M105,721L39,785L108,878Z" fill="#6866cd" stroke="#6866cd" stroke-width="1.51"/><path d="M104,38L30,262L169,253Z" fill="#5c47bf" stroke="#5c47bf" stroke-width="1.51"/><path d="M169,253L30,262L175,432Z" fill="#5c4ac2" stroke="#5c4ac2" stroke-width="1.51"/><path d="M39,-230L119,-43L184,-192Z" fill="#613fb6" stroke="#613fb6" stroke-width="1.51"/><path d="M97,1170L28,1339L188,1335Z" fill="#7684d7" stroke="#7684d7" stroke-width="1.51"/><path d="M30,262L-58,350L175,432Z" fill="#5c4ac1" stroke="#5c4ac1" stroke-width="1.51"/><path d="M-58,350L119,498L175,432Z" fill="#5e4ec4" stroke="#5e4ec4" stroke-width="1.51"/><path d="M-63,145L30,262L104,38Z" fill="#5d45bd" stroke="#5d45bd" stroke-width="1.51"/><path d="M1,1021L97,1170L129,999Z" fill="#7077d3" stroke="#7077d3" stroke-width="1.51"/><path d="M-61,550L40,655L119,498Z" fill="#6054c6" stroke="#6054c6" stroke-width="1.51"/><path d="M39,-230L-36,-75L119,-43Z" fill="#613fb5" stroke="#613fb5" stroke-width="1.51"/><path d="M108,878L1,1021L129,999Z" fill="#6d71d1" stroke="#6d71d1" stroke-width="1.51"/><path d="M1,1021L-56,1131L97,1170Z" fill="#7278d2" stroke="#7278d2" stroke-width="1.51"/><path d="M-58,350L-61,550L119,498Z" fill="#5f4ec3" stroke="#5f4ec3" stroke-width="1.51"/><path d="M-36,-75L104,38L119,-43Z" fill="#5f41b8" stroke="#5f41b8" stroke-width="1.51"/><path d="M-56,1131L28,1339L97,1170Z" fill="#757ed4" stroke="#757ed4" stroke-width="1.51"/><path d="M39,785L1,1021L108,878Z" fill="#6b6ccf" stroke="#6b6ccf" stroke-width="1.51"/><path d="M40,655L39,785L105,721Z" fill="#6661cb" stroke="#6661cb" stroke-width="1.51"/><path d="M-36,-75L-63,145L104,38Z" fill="#5f41b9" stroke="#5f41b9" stroke-width="1.51"/><path d="M-146,-39L-63,145L-36,-75Z" fill="#6140b7" stroke="#6140b7" stroke-width="1.51"/><path d="M-144,811L-149,1023L1,1021Z" fill="#706fcd" stroke="#706fcd" stroke-width="1.51"/><path d="M-56,1131L-134,1237L28,1339Z" fill="#787fd3" stroke="#787fd3" stroke-width="1.51"/><path d="M-144,811L1,1021L39,785Z" fill="#6c6acd" stroke="#6c6acd" stroke-width="1.51"/><path d="M-182,-263L-36,-75L39,-230Z" fill="#643cb2" stroke="#643cb2" stroke-width="1.51"/><path d="M-61,550L-168,652L40,655Z" fill="#6457c5" stroke="#6457c5" stroke-width="1.51"/><path d="M-144,811L39,785L40,655Z" fill="#6862ca" stroke="#6862ca" stroke-width="1.51"/><path d="M-168,652L-144,811L40,655Z" fill="#685ec7" stroke="#685ec7" stroke-width="1.51"/><path d="M-123,189L-58,350L30,262Z" fill="#5f46bd" stroke="#5f46bd" stroke-width="1.51"/><path d="M-63,145L-123,189L30,262Z" fill="#5f45bc" stroke="#5f45bc" stroke-width="1.51"/><path d="M-146,-39L-191,36L-63,145Z" fill="#6140b7" stroke="#6140b7" stroke-width="1.51"/><path d="M-182,508L-61,550L-58,350Z" fill="#624dc1" stroke="#624dc1" stroke-width="1.51"/><path d="M-156,357L-182,508L-58,350Z" fill="#614abf" stroke="#614abf" stroke-width="1.51"/><path d="M-149,1023L-56,1131L1,1021Z" fill="#7374d0" stroke="#7374d0" stroke-width="1.51"/><path d="M-123,189L-156,357L-58,350Z" fill="#6046bd" stroke="#6046bd" stroke-width="1.51"/><path d="M-162,1152L-134,1237L-56,1131Z" fill="#777ad0" stroke="#777ad0" stroke-width="1.51"/><path d="M-182,-263L-146,-39L-36,-75Z" fill="#633cb2" stroke="#633cb2" stroke-width="1.51"/><path d="M-191,36L-123,189L-63,145Z" fill="#6042b9" stroke="#6042b9" stroke-width="1.51"/><path d="M-149,1023L-162,1152L-56,1131Z" fill="#7576cf" stroke="#7576cf" stroke-width="1.51"/><path d="M-182,508L-168,652L-61,550Z" fill="#6452c3" stroke="#6452c3" stroke-width="1.51"/><path d="M-191,36L-156,357L-123,189Z" fill="#6043ba" stroke="#6043ba" stroke-width="1.51"/><path d="M-182,-263L-191,36L-146,-39Z" fill="#643cb2" stroke="#643cb2" stroke-width="1.51"/><path d="M-168,652L-149,1023L-144,811Z" fill="#6d66c9" stroke="#6d66c9" stroke-width="1.51"/><path d="M-168,652L-162,1152L-149,1023Z" fill="#716dcc" stroke="#716dcc" stroke-width="1.51"/><path d="M-191,36L-182,508L-156,357Z" fill="#6146bc" stroke="#6146bc" stroke-width="1.51"/><path d="M-168,652L-182,508L-162,1152Z" fill="#6c62c8" stroke="#6c62c8" stroke-width="1.51"/></svg>